<svg xmlns="http://www.w3.org/2000/svg" xmlns:xlink="http://www.w3.org/1999/xlink" x="0" y="0" width="292" height="73" style="
        width:292px;
        height:73px;
        background: transparent;
        fill: none;
">
        
        
        <svg xmlns="http://www.w3.org/2000/svg" class="role-diagram-draw-area"><g class="shapes-region" style="stroke: black; fill: none;"><g class="composite-shape"><path class="real" d=" M10,20.5 C10,17.46 12.46,15 15.5,15 C18.54,15 21,17.46 21,20.5 C21,23.54 18.54,26 15.5,26 C12.46,26 10,23.54 10,20.5 Z" style="stroke-width: 1px; stroke: none; stroke-opacity: 1; fill: rgb(56, 152, 38); fill-opacity: 1;"/></g><g class="composite-shape"><path class="real" d=" M25,35.5 C25,32.46 27.46,30 30.5,30 C33.54,30 36,32.46 36,35.5 C36,38.54 33.54,41 30.5,41 C27.46,41 25,38.54 25,35.5 Z" style="stroke-width: 1px; stroke: none; stroke-opacity: 1; fill: rgb(64, 99, 216); fill-opacity: 1;"/></g><g class="composite-shape"><path class="real" d=" M40,50.5 C40,47.46 42.46,45 45.5,45 C48.54,45 51,47.46 51,50.5 C51,53.54 48.54,56 45.5,56 C42.46,56 40,53.54 40,50.5 Z" style="stroke-width: 1px; stroke: none; stroke-opacity: 1; fill: rgb(203, 60, 51); fill-opacity: 1;"/></g><g class="composite-shape"><path class="real" d=" M40,35.5 C40,32.46 42.46,30 45.5,30 C48.54,30 51,32.46 51,35.5 C51,38.54 48.54,41 45.5,41 C42.46,41 40,38.54 40,35.5 Z" style="stroke-width: 1px; stroke: none; stroke-opacity: 1; fill: rgb(149, 88, 178); fill-opacity: 1;"/></g><g class="composite-shape"><path class="real" d=" M25,20.5 C25,17.46 27.46,15 30.5,15 C33.54,15 36,17.46 36,20.5 C36,23.54 33.54,26 30.5,26 C27.46,26 25,23.54 25,20.5 Z" style="stroke-width: 1px; stroke: none; stroke-opacity: 1; fill: rgb(56, 152, 38); fill-opacity: 1;"/></g><g class="composite-shape"><path class="real" d=" M40,20.5 C40,17.46 42.46,15 45.5,15 C48.54,15 51,17.46 51,20.5 C51,23.54 48.54,26 45.5,26 C42.46,26 40,23.54 40,20.5 Z" style="stroke-width: 1px; stroke: none; stroke-opacity: 1; fill: rgb(56, 152, 38); fill-opacity: 1;"/></g><g/></g><g/><g/><g/></svg>
        <svg xmlns="http://www.w3.org/2000/svg" xmlns:xlink="http://www.w3.org/1999/xlink" width="290" height="71" style="width:290px;height:71px;font-family:LatinModern-Math, LatinModern, Asana-Math, Asana;background:transparent;"><g><g><g><g transform="matrix(1,0,0,1,55,55.99903869628906)"><path transform="matrix(0.059999038696289066,0,0,-0.059999038696289066,0,0)" d="M91 46C91 27 93 0 135 0L168 0C212 0 214 28 214 46L214 576L488 51C504 21 519 0 565 0L656 0C675 0 702 3 702 45L702 649C702 668 699 694 658 694L625 694C580 694 579 666 579 648L579 118L305 643C289 674 275 694 229 694L137 694C114 694 91 689 91 649ZM843 63C843 59 844 58 845 54C852 39 967 -22 1099 -22C1294 -22 1343 90 1343 199C1343 317 1257 389 1180 414C1104 439 980 437 980 528C980 562 997 613 1089 613C1233 613 1250 537 1277 537C1281 537 1284 540 1287 548C1301 617 1305 642 1305 653C1305 657 1305 658 1304 660C1300 671 1213 717 1100 717C882 717 854 588 854 509C854 387 955 322 1025 305C1117 282 1133 283 1157 271C1174 263 1217 237 1217 184C1217 106 1159 86 1103 86C945 86 896 177 873 177C866 177 861 169 857 147C846 87 843 71 843 63ZM1496 45C1496 6 1517 0 1542 0L1789 0C1906 0 2137 15 2137 341C2137 648 1954 694 1778 694L1538 694C1494 694 1496 658 1496 646ZM1635 86L1635 579L1636 608L1781 608C1990 600 1998 459 1998 332L1998 321C1997 268 1992 212 1962 166C1911 90 1823 86 1746 86ZM2290 47C2290 29 2291 0 2336 0L2749 0C2771 0 2794 6 2794 44L2794 65C2794 89 2786 110 2752 111L2432 107L2432 310L2704 310C2717 310 2749 311 2749 357C2749 404 2721 405 2697 405L2432 405L2432 590C2676 587 2706 586 2737 586C2775 586 2779 613 2779 630L2779 646C2779 665 2777 691 2734 691L2336 691C2307 691 2290 682 2290 644ZM2927 23C2927 11 2929 0 2950 0L3037 0C3059 1 3058 10 3058 28L3058 110C3058 122 3057 131 3036 131L2949 131C2927 131 2928 122 2927 103ZM3077 -157C3077 -184 3176 -206 3222 -206C3366 -206 3372 -82 3372 -15L3372 412C3372 430 3370 458 3326 458L3283 458C3271 457 3238 460 3238 414L3238 -62C3238 -84 3234 -121 3176 -121C3135 -121 3114 -101 3101 -101C3084 -101 3077 -157 3077 -157ZM3230 626C3230 586 3252 580 3275 580L3327 580C3336 581 3372 579 3372 624L3372 676C3372 716 3349 722 3326 722L3275 722C3256 721 3230 720 3230 676ZM3492 45C3492 5 3514 0 3540 0L3581 0C3624 2 3626 22 3626 49L3626 677C3626 714 3605 722 3580 722L3534 722C3506 722 3492 704 3492 675Z" stroke="rgb(0,0,0)" stroke-opacity="1" stroke-width="0" fill="rgb(0,0,0)" fill-opacity="1"></path></g></g></g></g></svg>
</svg>
